<?xml version="1.0" standalone="no"?>
<!DOCTYPE svg PUBLIC "-//W3C//DTD SVG 20010904//EN"
 "http://www.w3.org/TR/2001/REC-SVG-20010904/DTD/svg10.dtd">
<svg version="1.0" xmlns="http://www.w3.org/2000/svg"
 width="728.000000pt" height="282.000000pt" viewBox="0 0 728.000000 282.000000"
 preserveAspectRatio="xMidYMid meet">
<metadata>
Created by potrace 1.16, written by Peter Selinger 2001-2019
</metadata>
<g transform="translate(0.000000,282.000000) scale(0.100000,-0.100000)"
fill="#cd0100" stroke="none">
<path d="M4180 2699 c-550 -39 -1192 -238 -1682 -521 l-96 -56 -324 5 c-528 9
-856 -27 -1175 -128 -324 -103 -581 -288 -659 -474 l-14 -35 39 0 c35 0 42 5
79 54 150 198 470 341 932 415 319 51 556 65 1037 59 365 -4 393 -3 393 13 0
13 -16 20 -65 30 -36 7 -65 16 -65 20 0 12 207 129 346 195 301 143 657 248
1034 306 123 18 189 22 435 22 256 1 307 -2 435 -22 204 -32 512 -102 741
-167 203 -59 639 -201 651 -213 4 -4 -93 -7 -215 -7 -241 -1 -344 -12 -582
-66 -126 -28 -305 -80 -412 -121 l-53 -19 15 -30 c9 -16 17 -29 19 -29 2 0 73
20 158 44 413 119 899 168 1353 136 227 -15 305 -29 332 -56 13 -13 34 -24 47
-24 21 0 25 8 40 70 10 38 35 113 56 165 21 52 35 95 30 95 -24 0 -59 -22
-100 -62 -53 -53 -128 -84 -240 -100 -93 -14 -152 0 -439 103 -647 233 -935
314 -1305 369 -250 37 -501 46 -746 29z"/>
<path d="M4170 2550 c-458 -38 -893 -163 -1201 -347 -43 -26 -79 -50 -79 -53
0 -4 9 -15 19 -24 18 -16 21 -16 71 15 228 140 753 287 1179 329 297 29 668
-16 1056 -129 70 -20 99 -33 97 -42 -17 -68 -29 -156 -22 -162 19 -21 41 5 98
116 l61 117 -34 15 c-146 61 -403 123 -616 150 -150 19 -485 27 -629 15z"/>
<path d="M4745 1955 c-88 -24 -312 -65 -473 -87 -117 -15 -209 -21 -362 -21
-255 0 -447 23 -748 90 -108 23 -114 24 -139 8 -33 -22 -32 -23 139 -79 518
-172 1058 -169 1548 6 98 35 112 45 104 76 -7 25 -3 25 -69 7z"/>
<path d="M5595 1845 c-177 -39 -331 -145 -412 -286 -30 -53 -63 -146 -63 -179
0 -26 4 -30 29 -30 25 0 31 5 41 38 46 142 181 273 341 329 97 34 252 43 353
19 192 -45 355 -191 410 -368 4 -13 16 -18 42 -18 l36 0 -7 43 c-34 207 -240
404 -473 452 -88 18 -215 18 -297 0z"/>
<path d="M1132 1835 c-118 -26 -238 -95 -287 -164 -14 -21 -25 -39 -25 -42 0
-2 22 -3 48 -3 34 1 74 14 134 43 117 55 202 74 303 68 99 -7 174 -32 262 -90
73 -47 182 -155 228 -224 22 -34 34 -43 56 -43 16 0 29 2 29 5 0 15 -53 120
-89 178 -137 216 -405 327 -659 272z"/>
<path d="M245 938 c-4 -22 -36 -197 -50 -280 l-6 -38 130 0 130 0 9 43 c5 23
7 45 5 50 -2 4 -38 7 -79 7 -41 0 -74 1 -74 3 0 2 9 52 20 112 11 60 20 112
20 117 0 4 -22 8 -50 8 -43 0 -50 -3 -55 -22z"/>
<path d="M831 908 c-6 -29 -18 -96 -26 -148 -9 -52 -19 -105 -22 -117 -5 -22
-2 -23 45 -23 58 0 55 -5 73 113 6 42 15 77 18 77 3 0 18 -30 32 -67 36 -93
50 -93 117 -2 30 39 55 69 57 67 2 -2 -3 -37 -11 -78 -21 -114 -22 -112 33
-108 55 3 48 -12 87 206 l23 132 -68 0 -68 0 -43 -55 c-23 -30 -46 -55 -49
-55 -4 0 -17 25 -29 55 l-22 55 -68 0 -69 0 -10 -52z"/>
<path d="M1621 941 c-14 -26 -4 -50 24 -57 36 -9 67 12 63 44 -3 23 -8 27 -40
30 -28 2 -39 -1 -47 -17z"/>
<path d="M2467 954 c-14 -14 -8 -64 8 -64 8 0 15 -6 15 -14 0 -7 -7 -19 -15
-26 -19 -15 -19 -30 -2 -30 28 0 51 40 51 88 1 43 -1 47 -24 50 -14 2 -29 0
-33 -4z"/>
<path d="M2995 798 c-49 -89 -91 -166 -93 -170 -2 -4 24 -8 58 -8 57 0 62 2
78 30 16 29 20 30 72 28 49 -3 55 -6 60 -28 5 -23 11 -25 63 -28 42 -2 57 0
57 10 0 7 -15 83 -33 168 l-33 155 -70 3 -69 2 -90 -162z m149 0 c7 -36 5 -38
-19 -38 -14 0 -25 2 -25 5 0 7 33 75 35 72 2 -1 5 -19 9 -39z"/>
<path d="M5146 933 c-19 -101 -14 -93 -45 -76 -37 22 -90 10 -126 -27 -23 -24
-30 -41 -33 -90 -4 -55 -2 -61 26 -90 32 -31 87 -41 109 -19 8 8 13 8 17 0 9
-14 83 -15 91 -1 3 5 18 81 34 170 l28 160 -48 0 c-44 0 -48 -2 -53 -27z m-47
-152 c13 -7 16 -18 13 -41 -5 -38 -47 -54 -69 -25 -17 25 -17 31 7 55 23 23
25 23 49 11z"/>
<path d="M5446 939 c-7 -31 -56 -305 -56 -314 0 -3 24 -5 53 -3 47 3 52 5 55
28 6 56 13 70 32 70 14 0 26 -14 41 -50 l21 -50 54 0 c30 0 54 2 54 4 0 2 -9
26 -21 52 l-20 48 23 18 c13 10 26 18 29 18 11 0 29 51 29 80 0 40 -18 77 -49
97 -19 13 -53 18 -133 21 -106 4 -107 4 -112 -19z m183 -93 c4 -26 -25 -46
-66 -46 -30 0 -33 3 -33 28 0 38 7 43 55 40 30 -2 41 -8 44 -22z"/>
<path d="M6741 941 c-14 -26 -4 -50 24 -57 36 -9 67 12 63 44 -3 23 -8 27 -40
30 -28 2 -39 -1 -47 -17z"/>
<path d="M1777 913 c-4 -3 -7 -14 -7 -24 0 -10 -9 -23 -20 -29 -21 -11 -29
-70 -10 -70 6 0 8 -25 4 -69 -6 -64 -5 -69 17 -85 26 -18 65 -21 103 -6 20 7
26 16 26 40 0 25 -4 30 -25 30 -19 0 -25 5 -25 23 0 45 12 66 38 69 21 2 28
10 33 35 6 29 4 32 -20 35 -22 3 -25 7 -23 31 3 26 2 27 -41 27 -24 0 -47 -3
-50 -7z"/>
<path d="M3685 890 c-4 -16 -13 -30 -21 -30 -8 0 -14 -6 -14 -12 0 -7 -3 -23
-6 -35 -5 -17 -2 -23 11 -23 12 0 15 -5 9 -22 -3 -11 -7 -44 -7 -71 -1 -57 17
-77 69 -77 57 0 84 16 84 50 0 27 -3 30 -31 30 -30 0 -31 2 -25 31 3 17 6 38
6 45 0 9 11 14 29 14 21 0 30 6 35 23 10 39 7 47 -20 47 -23 0 -26 3 -22 30 4
30 4 30 -43 30 -45 0 -48 -2 -54 -30z"/>
<path d="M572 849 c-49 -25 -72 -61 -72 -116 0 -89 92 -138 185 -99 40 17 43
26 17 49 -13 12 -28 15 -53 11 -25 -4 -39 -1 -48 10 -12 14 -5 16 73 16 l86 0
0 35 c0 49 -18 82 -55 100 -45 21 -82 19 -133 -6z m93 -69 c0 -10 -12 -16 -32
-18 -24 -2 -33 1 -33 12 0 8 6 17 13 20 22 9 52 1 52 -14z"/>
<path d="M1333 854 c-47 -23 -67 -60 -67 -122 -1 -48 2 -57 31 -82 30 -27 35
-28 124 -26 l93 1 18 95 c27 148 28 142 -39 140 -32 -1 -74 1 -93 4 -23 4 -46
1 -67 -10z m95 -73 c18 -11 11 -61 -10 -75 -39 -24 -76 35 -43 68 18 18 33 20
53 7z"/>
<path d="M2097 850 c-30 -24 -41 -25 -33 -5 4 12 -4 15 -44 15 -28 0 -50 -1
-50 -3 0 -2 -9 -52 -20 -112 -11 -60 -20 -113 -20 -117 0 -5 21 -8 47 -6 l48
3 11 63 c12 64 27 86 71 98 20 5 33 30 33 67 0 22 -11 22 -43 -3z"/>
<path d="M2236 860 c-52 -16 -96 -73 -96 -125 0 -92 108 -145 198 -97 l33 18
-22 20 c-13 12 -35 19 -62 19 -23 0 -42 5 -44 13 -4 9 16 12 76 12 l81 0 0 41
c0 53 -14 78 -55 95 -38 16 -66 17 -109 4z m72 -82 c3 -14 -4 -17 -32 -16 -38
1 -43 7 -24 26 17 17 52 11 56 -10z"/>
<path d="M2624 863 c-37 -7 -66 -47 -62 -84 3 -29 10 -37 48 -57 72 -36 60
-59 -14 -28 -33 14 -34 13 -55 -14 l-21 -29 45 -17 c65 -24 141 -15 172 20 13
15 23 35 23 45 0 28 -37 69 -70 76 -51 11 -49 29 3 22 40 -6 48 -4 62 15 21
32 20 36 -22 47 -38 11 -69 12 -109 4z"/>
<path d="M3944 859 c-51 -14 -94 -71 -94 -122 0 -51 21 -84 66 -103 46 -19 88
-18 133 5 48 25 72 62 73 112 1 88 -79 137 -178 108z m70 -85 c9 -8 16 -22 16
-29 0 -19 -28 -45 -49 -45 -42 0 -55 49 -19 74 28 20 33 20 52 0z"/>
<path d="M4363 856 c-88 -40 -99 -193 -16 -224 24 -9 193 -17 193 -9 0 2 9 52
20 112 11 60 20 113 20 118 0 4 -28 8 -62 7 -35 0 -76 2 -93 5 -17 3 -44 -1
-62 -9z m96 -80 c18 -21 3 -65 -25 -72 -32 -8 -44 2 -44 36 0 42 45 65 69 36z"/>
<path d="M4797 863 c-4 -3 -40 -6 -80 -5 l-72 2 -21 -115 c-11 -64 -18 -118
-15 -120 2 -3 23 -5 47 -5 46 0 46 0 60 95 8 60 18 75 52 75 24 0 25 -1 19
-53 -4 -29 -10 -68 -13 -86 l-7 -32 49 3 49 3 12 65 c19 103 17 146 -9 164
-23 17 -60 21 -71 9z"/>
<path d="M5835 852 c-52 -24 -77 -62 -78 -118 -1 -89 94 -139 188 -100 40 17
43 26 17 50 -13 11 -28 14 -50 10 -21 -4 -38 -2 -49 7 -14 12 -5 15 68 19 l84
5 3 37 c7 83 -93 132 -183 90z m85 -62 c0 -5 1 -13 3 -17 2 -8 -53 -13 -66 -5
-4 2 -3 10 4 18 13 16 59 19 59 4z"/>
<path d="M6216 863 c-4 -4 -35 -6 -69 -5 l-63 3 -23 -138 c-13 -76 -25 -151
-28 -166 -6 -28 -6 -28 43 -25 l49 3 8 53 c7 45 12 52 25 46 10 -4 33 -9 52
-11 92 -10 161 109 115 198 -21 39 -86 64 -109 42z m12 -85 c17 -17 15 -53 -3
-68 -8 -7 -25 -10 -40 -6 -20 5 -25 13 -25 36 0 41 42 64 68 38z"/>
<path d="M6441 853 c-63 -33 -87 -111 -55 -178 20 -42 49 -53 151 -54 94 -1
84 -12 108 124 21 125 24 116 -42 115 -32 -1 -74 1 -93 4 -25 5 -45 2 -69 -11z
m102 -85 c15 -22 -6 -68 -31 -68 -40 0 -55 45 -26 75 19 19 43 16 57 -7z"/>
<path d="M7024 860 c-12 -5 -25 -13 -29 -19 -10 -17 -28 -13 -21 4 4 12 -4 15
-44 15 l-49 0 -10 -52 c-15 -75 -31 -170 -31 -180 0 -5 21 -8 47 -6 l48 3 11
63 c12 64 27 86 71 98 16 4 24 16 29 40 8 41 6 44 -22 34z"/>
<path d="M1584 745 c-11 -64 -18 -118 -15 -120 2 -3 23 -5 47 -5 l42 0 16 93
c9 50 19 104 22 120 5 27 5 27 -43 27 l-50 0 -19 -115z"/>
<path d="M3342 783 c-16 -105 -15 -127 6 -146 21 -19 74 -22 104 -6 15 8 22 8
28 -1 4 -7 25 -10 51 -8 l44 3 21 115 20 115 -44 3 c-24 2 -46 1 -49 -1 -2 -3
-9 -36 -15 -73 -12 -73 -19 -84 -57 -84 -23 0 -23 2 -17 51 4 29 10 65 13 80
5 29 5 29 -44 29 l-50 0 -11 -77z"/>
<path d="M6710 788 c-7 -40 -16 -91 -20 -112 -5 -22 -7 -44 -4 -48 3 -4 24 -8
48 -8 l43 0 17 103 c10 56 20 110 22 120 5 14 -2 17 -44 17 l-50 0 -12 -72z"/>
</g>
</svg>
